<svg width="1440" height="900" viewBox="0 0 1440 900" fill="none" xmlns="http://www.w3.org/2000/svg">
<g clip-path="url(#clip0)">
<rect width="1440" height="900" fill="#FFEFEF"/>
<path d="M17 522V522C31.8919 547.783 69.1081 547.783 84 522V522V522C98.8919 496.217 136.108 496.217 151 522V522V522C165.892 547.783 203.108 547.783 218 522V522V522C232.892 496.217 270.108 496.217 285 522V522" stroke="#E7002A" stroke-width="5"/>
<path d="M369.337 103.435L446 -40H-36V484L85.0355 297.463C116.206 249.423 166.281 216.849 222.833 207.825C285.306 197.855 339.516 159.229 369.337 103.435Z" fill="#E7002A"/>
<path d="M293.337 83.4347L370 -60H-112V464L9.03551 277.463C40.2065 229.423 90.2815 196.849 146.833 187.825C209.306 177.855 263.516 139.229 293.337 83.4347Z" fill="#C4C4C4" fill-opacity="0.1"/>
<path d="M181.337 57.4347L258 -86H-224V438L-102.964 251.463C-71.7935 203.423 -21.7185 170.849 34.8326 161.825C97.3058 151.855 151.516 113.229 181.337 57.4347Z" fill="#C4C4C4" fill-opacity="0.15"/>
<path d="M1034.66 756.565L958 900L1440 900V376L1318.96 562.537C1287.79 610.577 1237.72 643.151 1181.17 652.175C1118.69 662.145 1064.48 700.771 1034.66 756.565Z" fill="#E7002A"/>
<path d="M1124.66 780.565L1048 924L1530 924V400L1408.96 586.537C1377.79 634.577 1327.72 667.151 1271.17 676.175C1208.69 686.145 1154.48 724.771 1124.66 780.565Z" fill="#C4C4C4" fill-opacity="0.1"/>
<rect x="1249.83" y="101.711" width="96" height="96" rx="8" transform="rotate(-45 1249.83 101.711)" stroke="#E7002A" stroke-width="4"/>
<path d="M-344 1190L293.482 668.981C410.493 573.347 574.545 560.3 705.202 636.237L751.866 663.358C871.213 732.722 1022.7 710.107 1116.58 608.908V608.908C1204.3 514.349 1343.27 487.7 1459.75 543.1L1592 606" stroke="#E7002A" stroke-width="8"/>
<path d="M864 260C651.2 244 555.333 50.6667 534 -44H1258C1215.33 64 1076.8 276 864 260Z" stroke="#E7002A" stroke-width="10"/>
<path d="M1146.66 864.565L1070 1008L1552 1008V484L1430.96 670.537C1399.79 718.577 1349.72 751.151 1293.17 760.175C1230.69 770.145 1176.48 808.771 1146.66 864.565Z" fill="#C4C4C4" fill-opacity="0.15"/>
</g>
<defs>
<clipPath id="clip0">
<rect width="1440" height="900" fill="white"/>
</clipPath>
</defs>
</svg>
