<svg width="1440" height="900" viewBox="0 0 1440 900" fill="none" xmlns="http://www.w3.org/2000/svg">
<g clip-path="url(#clip0)">
<rect width="1440" height="900" fill="#E7002A"/>
<path d="M49.5137 522.462L-152 559L-166 1179H1366C2574.91 1200.51 1946.16 958.276 1429.73 819.726C1387.85 808.492 1349.07 788.013 1316.61 759.276C1270.61 718.558 1208.88 700.428 1148.17 709.81L1112.62 715.304C1054.95 724.217 995.938 715.093 943.652 689.182L906.969 671.003C835.837 635.751 756.042 621.78 677.165 630.766L629.756 636.167C533.886 647.089 437.074 626.377 354.065 577.187C262.441 522.891 154.309 503.461 49.5137 522.462Z" fill="url(#paint0_linear)" fill-opacity="0.17" stroke="black" stroke-opacity="0.02" stroke-width="11"/>
<path d="M-182.486 254.462L-384 291L-398 1181H1134C2343.19 1202.51 1713.87 711.185 1197.37 552.874C1155.92 540.168 1117.07 520.013 1084.61 491.276C1038.61 450.558 976.877 432.428 916.167 441.81L880.621 447.304C822.952 456.217 763.938 447.093 711.652 421.182L674.969 403.003C603.837 367.751 524.042 353.78 445.165 362.766L397.756 368.167C301.886 379.089 205.074 358.377 122.065 309.187C30.4408 254.891 -77.6914 235.461 -182.486 254.462Z" fill="#C4C4C4" fill-opacity="0.15" stroke="black" stroke-opacity="0.01" stroke-width="8"/>
<path d="M85.5137 64.4618L-116 101L-130 1177H1402C2611.39 1198.51 1981.65 535.442 1465.11 363.644C1423.97 349.961 1385.07 330.013 1352.61 301.276C1306.61 260.558 1244.88 242.428 1184.17 251.81L1148.62 257.304C1090.95 266.217 1031.94 257.093 979.652 231.182L942.969 213.003C871.837 177.751 792.042 163.78 713.165 172.766L665.756 178.167C569.886 189.089 473.074 168.377 390.065 119.187C298.441 64.8908 190.309 45.4605 85.5137 64.4618Z" fill="url(#paint1_linear)" fill-opacity="0.25"/>
</g>
<defs>
<linearGradient id="paint0_linear" x1="947.635" y1="493" x2="792" y2="1229" gradientUnits="userSpaceOnUse">
<stop stop-color="#C4C4C4"/>
<stop offset="1" stop-color="white" stop-opacity="0"/>
</linearGradient>
<linearGradient id="paint1_linear" x1="1004" y1="88.9999" x2="624" y2="929" gradientUnits="userSpaceOnUse">
<stop stop-color="#C4C4C4"/>
<stop offset="0.729971" stop-color="white" stop-opacity="0"/>
</linearGradient>
<clipPath id="clip0">
<rect width="1440" height="900" fill="white"/>
</clipPath>
</defs>
</svg>
